<svg width="18" height="18" viewBox="0 0 18 18" fill="none" xmlns="http://www.w3.org/2000/svg">
<path fill-rule="evenodd" clip-rule="evenodd" d="M16.9013 0.111084H1.0921C0.550379 0.111084 0.111328 0.550135 0.111328 1.09186V16.901C0.111328 17.4427 0.550379 17.8819 1.0921 17.8819H9.60326V11.0001H7.28736V8.31809H9.60326V6.34023C9.60326 4.04497 11.0051 2.79513 13.0527 2.79513C14.0335 2.79513 14.8765 2.8681 15.1221 2.90073V5.29947L13.702 5.30013C12.5885 5.30013 12.3728 5.82927 12.3728 6.60577V8.31809H15.0286L14.6828 11.0001H12.3728V17.8819H16.9013C17.4429 17.8819 17.882 17.4427 17.882 16.901V1.09186C17.882 0.550135 17.4429 0.111084 16.9013 0.111084Z" fill="#D0D0D0"/>
</svg>
