<svg width="23" height="18" viewBox="0 0 23 18" fill="none" xmlns="http://www.w3.org/2000/svg">
<path fill-rule="evenodd" clip-rule="evenodd" d="M22.247 2.41627C21.443 2.77479 20.7655 2.78664 20.0465 2.43207C20.9729 1.87701 21.0154 1.48689 21.3502 0.437998C20.483 0.952565 19.5221 1.32689 18.4998 1.52837C17.683 0.657257 16.5166 0.111084 15.2258 0.111084C12.7467 0.111084 10.7379 2.12195 10.7379 4.59899C10.7379 4.95059 10.7774 5.29331 10.8534 5.6222C7.12403 5.43553 3.81637 3.64886 1.60304 0.932812C1.21687 1.59553 0.995634 2.36689 0.995634 3.1896C0.995634 4.74713 1.78872 6.11997 2.99168 6.92491C2.25588 6.90121 1.56452 6.69973 0.960078 6.36392C0.95909 6.38269 0.95909 6.40047 0.95909 6.42022C0.95909 8.59503 2.50576 10.4084 4.56008 10.8212C3.9023 11 3.20897 11.0276 2.53242 10.8992C3.10428 12.681 4.76156 13.9787 6.72502 14.0153C4.80403 15.5205 2.42279 16.1476 0.0800781 15.8731C2.06724 17.1461 4.42477 17.8889 6.96008 17.8889C15.2149 17.8889 19.7285 11.0503 19.7285 5.11948C19.7285 4.92392 19.7255 4.73133 19.7166 4.53874C20.5927 3.90664 21.6455 3.31701 22.247 2.41627Z" fill="#D0D0D0"/>
</svg>
