<svg width="23" height="16" viewBox="0 0 23 16" fill="none" xmlns="http://www.w3.org/2000/svg">
<path fill-rule="evenodd" clip-rule="evenodd" d="M9.13517 10.9376L9.13416 4.58597L15.0429 7.77284L9.13517 10.9376ZM22.1081 3.48564C22.1081 3.48564 21.8944 1.92786 21.2388 1.24187C20.4072 0.341486 19.4752 0.337038 19.0477 0.284322C15.9877 0.0556641 11.3975 0.0556641 11.3975 0.0556641H11.388C11.388 0.0556641 6.79785 0.0556641 3.73771 0.284322C3.31025 0.337038 2.37852 0.341486 1.54668 1.24187C0.891025 1.92786 0.67767 3.48564 0.67767 3.48564C0.67767 3.48564 0.458984 5.31497 0.458984 7.14432V8.85932C0.458984 10.6886 0.67767 12.518 0.67767 12.518C0.67767 12.518 0.891025 14.0758 1.54668 14.7618C2.37852 15.6621 3.4712 15.6336 3.95785 15.728C5.70729 15.9014 11.3927 15.9551 11.3927 15.9551C11.3927 15.9551 15.9877 15.9479 19.0477 15.7193C19.4752 15.6666 20.4072 15.6621 21.2388 14.7618C21.8944 14.0758 22.1081 12.518 22.1081 12.518C22.1081 12.518 22.3265 10.6886 22.3265 8.85932V7.14432C22.3265 5.31497 22.1081 3.48564 22.1081 3.48564Z" fill="#D0D0D0"/>
</svg>
